<svg xmlns="http://www.w3.org/2000/svg"  viewBox="0 0 48 48" width="100px" height="100px"><path fill="#ed488b" d="M45.063,25.727c-0.617-0.304-1.58-0.34-2.146,0.051c-0.422,0.292-0.622,0.808-0.767,1.3 c-0.209,0.711-0.351,1.441-0.424,2.179c-0.07,0.7-0.071,1.435,0.225,2.073c0.296,0.638,0.96,1.151,1.66,1.075 c0.901-0.098,1.43-1.034,1.81-1.856c0.152-0.33,0.305-0.661,0.457-0.991c0.314-0.681,0.635-1.395,0.606-2.144 S45.792,26.086,45.063,25.727z"/><path fill="#f58420" d="M19.59,9.68c-1.38-1.98-3.97-3.59-6.34-3.82c-2.08-0.2-3.6-0.15-5.69-0.18 C6.01,5.65,4.64,7.07,4.5,8.65c-0.14,1.59,0.04,3.46,0.34,5.68c0.22,1.6-0.23,6.3,0.44,7.27c0.67,0.96,2.34,1.31,3.47,1.52 c2.73,0.53,5.75,0.65,8.09-0.87c2.82-1.84,3.87-4.56,3.87-7.97C20.71,12.67,20.5,10.98,19.59,9.68z M14.2,16.46 c-0.8,0.79-2.11,1.05-3.17,0.63c-0.11-1.76-0.23-3.66-0.34-5.41c0.87-0.17,2.02-0.18,2.78,0.26c0.57,0.33,1.05,0.83,1.31,1.42 C15.24,14.38,15,15.66,14.2,16.46z"/><path fill="#f58420" d="M22.864,13.21c0.275-1.292-0.029-2.628-0.049-3.948s0.363-2.809,1.527-3.45 c0.972-0.535,2.227-0.296,3.158,0.307c0.931,0.603,1.607,1.514,2.263,2.405c1.194,1.623,2.388,3.246,3.583,4.87 c-0.076-1.474-0.035-2.954,0.123-4.422c0.083-0.771,0.205-1.558,0.588-2.234s1.081-1.224,1.862-1.228 c0.821-0.004,1.548,0.594,1.928,1.316c0.38,0.722,0.477,1.553,0.553,2.364c0.298,3.172,0.375,6.262,0.325,9.447 c-0.021,1.303-0.176,2.817-1.281,3.521c-0.858,0.547-2.029,0.371-2.895-0.164s-1.494-1.368-2.102-2.182 c-1.338-1.793-2.677-3.485-4.015-5.278c0.069,1.521,0.051,3.046-0.053,4.564c-0.034,0.496-0.079,0.999-0.253,1.466 c-0.495,1.329-2.128,2.119-3.488,1.688c-0.417-0.132-0.808-0.368-1.077-0.71c-0.355-0.452-0.47-1.042-0.554-1.609 c-0.347-2.33-0.371-4.707-0.071-7.043"/><path fill="#f58420" d="M5.853,26.124c-0.978,0.832-0.876,1.739-1.049,2.8c-0.173,1.061-0.035,2.144,0.064,3.215 c0.194,2.11,0.234,4.234,0.117,6.35c-0.053,0.965-0.136,1.952,0.126,2.882c0.262,0.93,1.96,1.808,2.912,1.973 c1.048,0.181,2.085-0.569,2.553-1.523c0.469-0.954,0.486-2.063,0.43-3.124c-0.02-0.372,0.048-0.87,0.417-0.921 c0.252-0.035,0.46,0.185,0.622,0.381c1.023,1.243,2.151,2.4,3.367,3.455c0.562,0.488,1.196,0.975,1.939,1.02 c1.019,0.062,1.937-0.792,2.195-1.779c0.258-0.988-0.029-2.047-0.515-2.945c-0.486-0.897-1.162-1.675-1.758-2.503 c-0.191-0.265-0.379-0.549-0.42-0.873c-0.058-0.46,0.191-0.899,0.46-1.276c1.062-1.486,2.675-2.843,2.635-4.669 c-0.034-1.549-1.538-2.906-3.083-2.781c-2.295,0.186-3.461,2.852-5.425,4.052c0.464-0.698,0.359-1.667-0.089-2.375 s-1.182-1.189-1.947-1.532C8.666,25.619,6.744,25.366,5.853,26.124z"/><path fill="#f58420" d="M33.05,33.71c0.014-1.621,0.028-3.241,0.041-4.862c0.004-0.455,0.012-0.928,0.216-1.335 c0.318-0.634,1.032-0.957,1.711-1.162c0.632-0.191,1.32-0.321,1.946-0.11c0.744,0.251,1.266,0.951,1.506,1.699 c0.24,0.748,0.241,1.548,0.24,2.333c-0.004,2.949-0.409,5.897-0.413,8.846c-0.001,0.935,0.391,1.901,0.015,2.757 c-0.376,0.856-1.224,1.578-2.156,1.503c-0.716-0.058-1.313-0.552-1.844-1.036c-2.159-1.97-4.114-4.164-5.822-6.536 c-0.018,1.301-0.036,2.602-0.054,3.903c-0.01,0.71-0.025,1.447-0.333,2.087c-0.642,1.337-2.628,1.778-3.775,0.838 c-1.11-0.91-1.211-2.543-1.222-3.978c-0.027-3.31-0.053-6.619-0.08-9.929c-0.007-0.843,0.019-1.774,0.591-2.392 c0.66-0.714,1.839-0.713,2.701-0.262c0.862,0.45,1.481,1.246,2.073,2.018c1.529,1.995,3.058,3.99,4.587,5.985"/><path fill="#010101" d="M20.582,10.469c-0.912-2.172-3.079-3.785-5.226-4.608c-2.421-0.928-5.248-0.643-7.792-0.683 c-2.002,0.034-3.432,1.74-3.578,3.653c-0.161,2.114,0.342,4.16,0.414,6.257c0.056,1.623-0.07,3.248,0.036,4.87 c0.038,0.58,0.067,1.259,0.349,1.783c0.386,0.715,1.195,1.117,1.925,1.383c1.88,0.686,4.141,0.953,6.13,0.834 c2.18-0.13,4.174-0.926,5.741-2.467c1.321-1.298,2.126-3.011,2.437-4.825C21.36,14.666,21.379,12.367,20.582,10.469z M20.205,14.84 c-0.061,1.672-0.431,3.346-1.356,4.762c-0.996,1.524-2.584,2.665-4.348,3.108c-1.93,0.485-3.982,0.26-5.908-0.126 c-0.766-0.153-1.573-0.323-2.256-0.718c-0.57-0.329-0.759-0.683-0.846-1.306c-0.189-1.355-0.093-2.762-0.082-4.126 c0.015-1.851-0.317-3.648-0.422-5.492C4.93,9.952,4.812,8.763,5.223,7.832c0.414-0.938,1.298-1.636,2.34-1.654 c2.055,0.032,4.244-0.141,6.268,0.275c1.849,0.38,3.583,1.45,4.832,2.855C20.031,10.848,20.278,12.85,20.205,14.84z"/><path fill="#010101" d="M10.189,11.677c0.117,1.804,0.225,3.608,0.342,5.412c0.016,0.241,0.148,0.398,0.367,0.482 c1.611,0.618,3.602-0.118,4.308-1.719c0.352-0.798,0.416-1.733,0.088-2.552c-0.324-0.809-0.978-1.532-1.777-1.895 c-0.921-0.419-1.986-0.391-2.962-0.21c-0.266,0.049-0.416,0.371-0.349,0.615c0.077,0.279,0.349,0.399,0.615,0.349 c0.631-0.118,1.316-0.146,1.94,0.028c0.621,0.172,1.16,0.641,1.473,1.198c0.64,1.138,0.12,2.596-1.027,3.159 c-0.639,0.314-1.386,0.315-2.044,0.063c0.122,0.161,0.245,0.321,0.367,0.482c-0.117-1.804-0.225-3.608-0.342-5.412 C11.148,11.038,10.148,11.034,10.189,11.677z"/><path fill="#010101" d="M39.233,15.961c-0.015-1.61-0.07-3.221-0.178-4.827c-0.099-1.479-0.062-3.217-0.778-4.559 c-0.512-0.958-1.55-1.702-2.671-1.535c-1.466,0.217-2.255,1.626-2.504,2.959c-0.233,1.247-0.303,2.542-0.296,3.825 c-0.95-1.297-1.896-2.598-2.859-3.885c-1.017-1.359-2.222-2.7-4.01-2.897c-1.626-0.18-2.892,0.848-3.37,2.354 c-0.593,1.868,0.168,3.796-0.184,5.683c-0.016,0.088-0.008,0.167,0.013,0.239c-0.219,2.041-0.217,4.096,0.044,6.135 c0.108,0.844,0.202,1.766,0.768,2.445c0.487,0.585,1.24,0.912,1.991,0.965c1.418,0.099,2.854-0.758,3.379-2.088 c0.351-0.89,0.33-1.931,0.366-2.874c0.024-0.614,0.03-1.229,0.025-1.843c0.718,0.942,1.438,1.884,2.155,2.826 c0.845,1.11,1.623,2.372,2.738,3.236c0.938,0.728,2.226,1.129,3.381,0.694c1.122-0.423,1.675-1.528,1.861-2.649 C39.327,18.789,39.246,17.348,39.233,15.961z M38.21,19.068c-0.041,0.897-0.161,2.015-0.937,2.597 c-0.976,0.731-2.304,0.147-3.093-0.579c-0.998-0.918-1.747-2.124-2.567-3.196c-0.919-1.201-1.845-2.397-2.751-3.608 c-0.271-0.362-0.955-0.293-0.932,0.252c0.07,1.652,0.095,3.344-0.088,4.99c-0.151,1.366-1.201,2.491-2.66,2.333 c-1.807-0.196-1.775-2.349-1.881-3.74c-0.133-1.744-0.081-3.492,0.132-5.228c0.006-0.05-0.005-0.09-0.011-0.132 c0.116-1.403-0.23-2.79-0.08-4.195c0.163-1.537,1.147-2.874,2.848-2.469c1.607,0.382,2.583,1.926,3.498,3.17 c1.075,1.461,2.15,2.922,3.224,4.383c0.268,0.365,0.957,0.29,0.932-0.252c-0.062-1.311-0.043-2.624,0.075-3.932 c0.099-1.101,0.208-2.549,1.245-3.207c1.098-0.697,2.116,0.294,2.452,1.317c0.402,1.224,0.383,2.649,0.462,3.924 C38.235,14.006,38.324,16.554,38.21,19.068z"/><path fill="#010101" d="M18.162,35.768c-0.4-0.527-1.01-1.101-0.696-1.8c0.445-0.991,1.388-1.781,2.009-2.666 c0.557-0.793,1-1.723,0.972-2.715c-0.061-2.202-2.397-3.818-4.474-3.104c-1.589,0.547-2.55,1.962-3.728,3.087 c-0.173-2.619-4.501-4.531-6.646-2.878c-0.014,0.011-0.02,0.025-0.032,0.037C5.546,25.744,5.522,25.75,5.5,25.77 c-0.775,0.705-0.995,1.546-1.116,2.552c-0.156,1.305-0.136,2.507-0.016,3.817c0.126,1.38,0.188,2.765,0.182,4.151 c-0.006,1.359-0.201,2.742-0.102,4.098c0.075,1.029,0.363,1.775,1.196,2.404c0.675,0.51,1.531,0.943,2.379,1.052 c2.364,0.305,3.461-2.243,3.503-4.185c0.007-0.322-0.017-0.641-0.02-0.963c-0.001-0.096-0.018-0.218,0.008-0.308 c0.064-0.225-0.025-0.073,0.075,0.004c0.213,0.163,0.371,0.442,0.548,0.646c0.251,0.29,0.507,0.575,0.769,0.855 c0.841,0.899,1.737,1.809,2.731,2.541c0.848,0.625,1.864,0.93,2.856,0.451c0.902-0.435,1.482-1.351,1.613-2.326 c0.156-1.156-0.264-2.308-0.863-3.281C18.918,36.751,18.537,36.261,18.162,35.768z M18.758,41.377 c-0.718,1.018-1.795,0.839-2.678,0.146c-0.886-0.696-1.698-1.515-2.467-2.336c-0.393-0.42-0.769-0.854-1.141-1.294 c-0.244-0.288-0.509-0.564-0.903-0.609c-0.815-0.093-1.071,0.768-1.063,1.413c0.013,1.079,0.09,2.236-0.538,3.182 c-0.545,0.821-1.41,1.156-2.34,0.845c-0.686-0.23-1.655-0.686-1.991-1.374c-0.262-0.537-0.218-1.272-0.202-1.854 c0.019-0.662,0.071-1.322,0.093-1.984c0.045-1.385,0.023-2.772-0.065-4.154c-0.082-1.28-0.316-2.579-0.223-3.863 c0.076-1.049,0.135-2.222,0.933-2.981c0.805-0.564,2.071-0.471,2.951-0.138c1.226,0.464,2.708,1.823,1.883,3.231 c-0.247,0.422,0.255,0.956,0.684,0.684c1.403-0.889,2.289-2.325,3.6-3.313c0.652-0.491,1.463-0.819,2.285-0.614 c0.874,0.218,1.631,0.964,1.825,1.849c0.41,1.872-1.568,3.432-2.52,4.792c-0.564,0.806-0.707,1.64-0.153,2.492 c0.592,0.912,1.352,1.701,1.871,2.665C19.114,39.119,19.437,40.414,18.758,41.377z"/><path fill="#010101" d="M38.892,27.635c-0.484-1.297-1.601-2.126-3.008-1.979c-1.355,0.142-2.956,0.791-3.228,2.276 c-0.155,0.847-0.072,1.76-0.079,2.617c-0.006,0.721-0.012,1.442-0.018,2.163c-0.776-1.013-1.552-2.026-2.329-3.039 c-0.904-1.179-1.755-2.578-2.915-3.527c-0.91-0.744-2.153-1.156-3.288-0.682c-1.182,0.493-1.476,1.732-1.499,2.898 c-0.067,3.484,0.023,6.99,0.081,10.474c0.02,1.2,0.105,2.521,0.813,3.539c0.632,0.908,1.662,1.363,2.759,1.234 c1.276-0.149,2.317-1.017,2.611-2.279c0.196-0.842,0.147-1.739,0.159-2.597c0.009-0.628,0.017-1.256,0.026-1.884 c0.788,0.681,1.518,1.424,2.151,2.257c0.601,0.792,1.121,1.641,1.741,2.419c0.706,0.885,1.654,1.941,2.775,2.263 c1.21,0.347,2.396-0.377,2.981-1.425c0.343-0.614,0.386-1.26,0.308-1.945c-0.097-0.855-0.142-1.666-0.113-2.529 c0.061-1.805,0.231-3.603,0.324-5.406C39.225,30.936,39.447,29.122,38.892,27.635z M38.117,32.976 c-0.087,1.475-0.213,2.947-0.278,4.423c-0.028,0.641-0.072,1.295-0.036,1.936c0.038,0.686,0.291,1.425,0.125,2.107 c-0.13,0.534-0.542,1.04-1.032,1.288c-0.611,0.31-1.211,0.075-1.724-0.308c-0.745-0.556-1.379-1.285-1.921-2.035 c-0.54-0.748-1.039-1.523-1.617-2.243c-0.813-1.015-1.767-1.892-2.791-2.69c-0.328-0.256-0.847-0.116-0.854,0.354 c-0.019,1.372-0.024,2.745-0.057,4.116c-0.027,1.124-0.244,2.224-1.439,2.605c-0.958,0.306-1.908-0.068-2.391-0.951 c-0.519-0.948-0.489-2.122-0.498-3.17c-0.024-2.813-0.045-5.626-0.068-8.439c-0.008-0.967-0.29-2.587,0.495-3.339 c0.881-0.844,2.224-0.148,2.934,0.548c1.02,1,1.829,2.255,2.695,3.387c0.962,1.255,1.923,2.51,2.885,3.765 c0.352,0.459,1.093,0.086,0.929-0.37c0.042-0.069,0.073-0.149,0.074-0.25c0.012-1.459,0.025-2.917,0.037-4.376 c0.005-0.586-0.087-1.32,0.31-1.805c0.374-0.458,1.023-0.648,1.575-0.785C38.926,25.888,38.234,30.99,38.117,32.976z"/><path fill="#010101" d="M46.901,26.921c-0.239-0.754-0.906-1.281-1.586-1.626c-0.612-0.283-1.29-0.376-1.953-0.236 c-0.698,0.147-1.195,0.636-1.474,1.276c-0.306,0.702-0.465,1.483-0.576,2.238c-0.113,0.773-0.195,1.567-0.026,2.339 c0.297,1.353,1.701,2.494,3.075,1.774c0.544-0.285,0.931-0.817,1.221-1.343c0.347-0.631,0.637-1.307,0.924-1.967 C46.828,28.633,47.159,27.734,46.901,26.921z M45.769,28.547c-0.209,0.58-0.497,1.136-0.755,1.695 c-0.19,0.411-0.389,0.841-0.686,1.188c-0.255,0.298-0.595,0.542-1.006,0.469c-0.445-0.079-0.795-0.468-0.958-0.87 c-0.218-0.539-0.196-1.146-0.143-1.714c0.058-0.63,0.179-1.255,0.344-1.866c0.129-0.476,0.277-1.115,0.775-1.339 c0.441-0.198,1.037-0.152,1.47,0.048c0.41,0.208,0.849,0.475,1.069,0.897C46.117,27.511,45.932,28.096,45.769,28.547z"/></svg>